<svg xmlns="http://www.w3.org/2000/svg" xmlns:xlink="http://www.w3.org/1999/xlink" width="50" height="50" viewBox="0 0 50 50"><defs><clipPath id="clip-path"><rect id="Rectangle_85" data-name="Rectangle 85" width="50" height="50" transform="translate(230 1598)" fill="#fff" stroke="#707070" stroke-width="1"></rect></clipPath></defs><g id="Mask_Group_24" data-name="Mask Group 24" transform="translate(-230 -1598)" clip-path="url(#clip-path)"><g id="wifi-signal" transform="translate(230 1555.256)"><g id="Group_45" data-name="Group 45" transform="translate(-0.001 47.37)"><g id="XMLID_1_" transform="translate(0 0)"><g id="Group_44" data-name="Group 44"><path id="Path_86" data-name="Path 86" d="M49.223,59.366a3.62,3.62,0,0,1-.473,4.979,3.012,3.012,0,0,1-4.326-.465,24.927,24.927,0,0,0-19.348-9.632h-.111A24.912,24.912,0,0,0,5.6,64.062a3.012,3.012,0,0,1-4.318.508,3.62,3.62,0,0,1-.521-4.977A30.991,30.991,0,0,1,24.933,47.37h.14a29.478,29.478,0,0,1,13.344,3.186.732.732,0,0,1-.657,1.309,28.027,28.027,0,0,0-12.686-3.029h-.134A29.628,29.628,0,0,0,1.9,60.5,2.159,2.159,0,0,0,2.2,63.43a1.549,1.549,0,0,0,2.249-.274A26.365,26.365,0,0,1,24.957,52.783h.119A26.385,26.385,0,0,1,45.566,62.962a1.549,1.549,0,0,0,2.249.256,2.159,2.159,0,0,0,.268-2.933,31.925,31.925,0,0,0-7.434-6.759.733.733,0,1,1,.8-1.228,33.372,33.372,0,0,1,7.774,7.067Z" transform="translate(0.001 -47.37)" fill="#fff"></path><path id="Path_87" data-name="Path 87" d="M114.382,165.792a3.627,3.627,0,0,1-.373,5.1,3.026,3.026,0,0,1-4.263-.39,15.248,15.248,0,0,0-11.516-5.393h-.07a15.242,15.242,0,0,0-11.535,5.5,3.026,3.026,0,0,1-4.257.432l0,0a3.627,3.627,0,0,1-.421-5.095,21.037,21.037,0,0,1,32.436-.152Zm-1.308,3.971a2.162,2.162,0,0,0,.207-3,19.9,19.9,0,0,0-15.055-7.063h-.091a19.9,19.9,0,0,0-15.08,7.205,2.146,2.146,0,0,0-.488,1.589,2.048,2.048,0,0,0,.721,1.412h0a1.567,1.567,0,0,0,2.227-.251,16.686,16.686,0,0,1,12.637-6.009h.077a16.691,16.691,0,0,1,12.615,5.891,1.567,1.567,0,0,0,2.228.229Z" transform="translate(-73.175 -147.403)" fill="#fff"></path><path id="Path_88" data-name="Path 88" d="M180.02,272.131a3.607,3.607,0,0,1-.092,5.381,3.014,3.014,0,0,1-3.945-.071,6.012,6.012,0,0,0-2.2-1.226.733.733,0,0,1,.425-1.4,7.476,7.476,0,0,1,2.731,1.52,1.551,1.551,0,0,0,2.055.051,2.143,2.143,0,0,0,.058-3.151,10.393,10.393,0,0,0-6.926-2.675h-.047a10.391,10.391,0,0,0-6.95,2.74,2.145,2.145,0,0,0,.088,3.15,1.549,1.549,0,0,0,2.053-.069,7.5,7.5,0,0,1,3.178-1.673.733.733,0,0,1,.345,1.424,6.035,6.035,0,0,0-2.554,1.348,3.011,3.011,0,0,1-3.943.108,3.606,3.606,0,0,1-.143-5.38,12,12,0,0,1,7.919-3.113h.055A12,12,0,0,1,180.02,272.131Z" transform="translate(-147.099 -247.44)" fill="#fff"></path><path id="Path_89" data-name="Path 89" d="M221.025,386.849a3.8,3.8,0,1,1-3.785,3.8A3.8,3.8,0,0,1,221.025,386.849Zm2.32,3.8a2.32,2.32,0,1,0-2.32,2.333A2.33,2.33,0,0,0,223.345,390.647Z" transform="translate(-196.025 -353.697)" fill="#fff"></path></g></g></g></g></g></svg>