<svg xmlns="http://www.w3.org/2000/svg" xmlns:xlink="http://www.w3.org/1999/xlink" width="50" height="50" viewBox="0 0 50 50"><defs><clipPath id="clip-path"><rect id="Rectangle_85" data-name="Rectangle 85" width="50" height="50" transform="translate(230 1598)" fill="#fff" stroke="#707070" stroke-width="1"></rect></clipPath></defs><g id="Mask_Group_24" data-name="Mask Group 24" transform="translate(-230 -1598)" clip-path="url(#clip-path)"><g id="employees" transform="translate(230 1568.747)"><g id="Group_48" data-name="Group 48" transform="translate(27.293 64.742)"><g id="Group_47" data-name="Group 47"><path id="Path_91" data-name="Path 91" d="M282.952,361.686h-2.741a.732.732,0,0,0,0,1.465h2.741a.732.732,0,0,0,0-1.465Z" transform="translate(-279.479 -361.686)" fill="#fff"></path></g></g><g id="Group_50" data-name="Group 50" transform="translate(21.556 32.063)"><g id="Group_49" data-name="Group 49" transform="translate(0 0)"><path id="Path_92" data-name="Path 92" d="M246.073,56.772l-3.988-1.561-2.033-2.063a.724.724,0,0,0-.471-.215V51.291a7.705,7.705,0,0,0,1.916-3.829,2.066,2.066,0,0,0,.514-.041,2.193,2.193,0,0,0,1.682-2.181V44.7a2.244,2.244,0,0,0-.645-1.581c.647-3.569.114-6.478-1.547-8.425-1.607-1.883-4.2-2.783-7.488-2.6a9.732,9.732,0,0,0-5.625,2.106,3.82,3.82,0,0,0-1.507.52,3.97,3.97,0,0,0-1.783,3.679,18.817,18.817,0,0,0,.508,4.317,2.207,2.207,0,0,0-1.193,1.995v.534a2.193,2.193,0,0,0,1.682,2.181,2.062,2.062,0,0,0,.514.041,7.706,7.706,0,0,0,1.916,3.829v1.642a.724.724,0,0,0-.471.215l-2.034,2.063-3.988,1.561a4.826,4.826,0,0,0-.98.52.75.75,0,0,0-.194,1.032.725.725,0,0,0,1.017.2,3.373,3.373,0,0,1,.683-.363l3.7-1.449,2.83,4.308a2.091,2.091,0,0,0,1.542.94c.07.007.14.011.21.011a2.067,2.067,0,0,0,1.031-.277l-.607,13.979a.739.739,0,0,0,.7.775H232a.737.737,0,0,0,.731-.71l.564-12.975h1.521l.564,12.975a.737.737,0,0,0,.731.71h.033a.739.739,0,0,0,.7-.775l-.607-13.979a2.067,2.067,0,0,0,1.031.277c.07,0,.14,0,.21-.011a2.091,2.091,0,0,0,1.542-.94l2.83-4.308,3.7,1.449a3.372,3.372,0,0,1,1.317.932l-2.532,2.57a4.92,4.92,0,0,0-1.419,3.475V75.7a.733.733,0,1,0,1.465,0V65.135a3.432,3.432,0,0,1,.99-2.424l2.222-2.255a3.472,3.472,0,0,1,.117,1.039l-.567,14.178a.739.739,0,0,0,.7.773h.03a.737.737,0,0,0,.731-.713l.567-14.178A4.916,4.916,0,0,0,246.073,56.772ZM228.04,47.155a1.43,1.43,0,0,0-1.483-1.179.619.619,0,0,1-.17-.012.72.72,0,0,1-.511-.725V44.7a.7.7,0,0,1,.517-.707.632.632,0,0,1,.627.244,1.012,1.012,0,0,0,1.4.224,5.355,5.355,0,0,0,1.2-1.191.75.75,0,0,0-.151-1.04.725.725,0,0,0-1.025.153,3.924,3.924,0,0,1-.57.625,2.086,2.086,0,0,0-.794-.43,17.327,17.327,0,0,1-.523-4.189,2.619,2.619,0,0,1,1.028-2.377,2.352,2.352,0,0,1,1.095-.356.734.734,0,0,0,.505-.205,8.192,8.192,0,0,1,4.9-1.882c2.822-.155,5,.568,6.3,2.091s1.746,3.891,1.273,6.841a3.13,3.13,0,0,0-.625.044l-.688-1.677a.73.73,0,0,0-.861-.433c-.068.018-6.832,1.758-9.668-1.825a.725.725,0,0,0-1.03-.114.751.751,0,0,0-.112,1.045c2.9,3.659,8.643,2.863,10.556,2.475l.532,1.3a1.2,1.2,0,0,0,1.391.724,1.559,1.559,0,0,1,.548-.041.7.7,0,0,1,.52.7v.542a.719.719,0,0,1-.511.725.612.612,0,0,1-.17.012,1.431,1.431,0,0,0-1.483,1.179,6.1,6.1,0,0,1-12.022,0Zm3.249,13.137a.632.632,0,0,1-.982-.1l-2.851-4.339,1.147-1.163,4.377,3.886Zm2.066.982.044-1.021.651-.661.651.661.044,1.021Zm.7-3.721-4.064-3.608V52.522a7.488,7.488,0,0,0,8.128,0v1.422Zm3.744,2.64a.632.632,0,0,1-.982.1l-1.691-1.715L239.5,54.69l1.147,1.163Z" transform="translate(-220.729 -32.066)" fill="#fff"></path></g></g><g id="Group_52" data-name="Group 52" transform="translate(0 32.063)"><g id="Group_51" data-name="Group 51" transform="translate(0 0)"><path id="Path_93" data-name="Path 93" d="M23.228,60.664,19.651,59.08,17.7,57.1a.723.723,0,0,0-.471-.215V55.712a7.681,7.681,0,0,0,3.286-5,2.075,2.075,0,0,0,.578-.056,2.207,2.207,0,0,0,1.617-2.167V47.95a2.225,2.225,0,0,0-.939-1.828,8.521,8.521,0,0,0,.253-2.059,8.691,8.691,0,0,0-4.113-7.348,4.846,4.846,0,0,0-9.685,0,8.692,8.692,0,0,0-4.113,7.348,8.521,8.521,0,0,0,.252,2.053,2.231,2.231,0,0,0-.937,1.842v.534a2.207,2.207,0,0,0,1.617,2.167,2.071,2.071,0,0,0,.578.056,7.682,7.682,0,0,0,3.286,5v1.169a.723.723,0,0,0-.471.215L6.482,59.08,2.906,60.664A4.952,4.952,0,0,0,0,65.377L.437,75.731a.737.737,0,0,0,.731.712H1.2a.739.739,0,0,0,.7-.774L1.468,65.314a3.462,3.462,0,0,1,.464-1.872l1.922,2.341a4.169,4.169,0,0,1,.942,2.64V75.7a.733.733,0,1,0,1.465,0V68.423A5.671,5.671,0,0,0,4.98,64.832L2.936,62.343a3.308,3.308,0,0,1,.556-.316l3.117-1.381,2.2,3.628a1.415,1.415,0,0,0,.987.666,1.4,1.4,0,0,0,1.141-.327l1.4-1.208V75.7a.733.733,0,1,0,1.465,0V63.405l1.4,1.208a1.405,1.405,0,0,0,2.127-.34l2.2-3.628,3.117,1.381a3.311,3.311,0,0,1,.556.316l-2.044,2.488a5.671,5.671,0,0,0-1.282,3.592V75.7a.733.733,0,1,0,1.465,0V68.423a4.169,4.169,0,0,1,.942-2.64L24.2,63.442a3.462,3.462,0,0,1,.464,1.872l-.433,10.354a.739.739,0,0,0,.7.774h.032a.737.737,0,0,0,.731-.712l.433-10.354A4.953,4.953,0,0,0,23.228,60.664ZM13.067,33.549a3.361,3.361,0,0,1,3.262,2.375,9.162,9.162,0,0,0-6.523,0A3.361,3.361,0,0,1,13.067,33.549ZM7.056,50.409a1.431,1.431,0,0,0-1.483-1.179.624.624,0,0,1-.191-.017.725.725,0,0,1-.49-.72v-.534a.7.7,0,0,1,.517-.707.632.632,0,0,1,.627.243,1.012,1.012,0,0,0,1.4.224,5.349,5.349,0,0,0,1.185-1.17.75.75,0,0,0-.146-1.04.726.726,0,0,0-1.025.148,3.918,3.918,0,0,1-.559.61,2.084,2.084,0,0,0-1.105-.494,7.018,7.018,0,0,1-.212-1.708,7.383,7.383,0,0,1,7.49-7.253,7.383,7.383,0,0,1,7.49,7.253,7.015,7.015,0,0,1-.211,1.7,3.315,3.315,0,0,0-.57.1l-.551-.459a1.393,1.393,0,0,0-.977-.325c-1.077.065-6.59.212-9.419-3.223A.725.725,0,0,0,7.8,41.763a.751.751,0,0,0-.092,1.047,10.43,10.43,0,0,0,6.082,3.4,17.673,17.673,0,0,0,4.523.35l.859.717A.722.722,0,0,0,20,47.35a1.6,1.6,0,0,1,.722-.1.7.7,0,0,1,.519.7v.542a.725.725,0,0,1-.49.72.618.618,0,0,1-.191.016,1.432,1.432,0,0,0-1.483,1.179,6.1,6.1,0,0,1-12.023,0ZM10.03,63.447l-2.2-3.628,1.129-1.145,3.033,3.078Zm3.037-2.7L10.373,58.01V56.472a7.47,7.47,0,0,0,5.388,0V58.01Zm3.037,2.7-1.959-1.7,3.033-3.078,1.129,1.145Z" transform="translate(0 -32.063)" fill="#fff"></path></g></g><g id="Group_54" data-name="Group 54" transform="translate(7.538 68.126)"><g id="Group_53" data-name="Group 53"><path id="Path_94" data-name="Path 94" d="M79.972,394.766H77.916a.732.732,0,1,0,0,1.465h2.056a.732.732,0,1,0,0-1.465Z" transform="translate(-77.184 -394.766)" fill="#fff"></path></g></g></g></g></svg>