<svg xmlns="http://www.w3.org/2000/svg" xmlns:xlink="http://www.w3.org/1999/xlink" width="50" height="50" viewBox="0 0 50 50"><defs><clipPath id="clip-path"><rect id="Rectangle_85" data-name="Rectangle 85" width="50" height="50" transform="translate(230 1598)" fill="#fff" stroke="#707070" stroke-width="0.5"></rect></clipPath></defs><g id="Mask_Group_24" data-name="Mask Group 24" transform="translate(-230 -1598)" clip-path="url(#clip-path)"><g id="wifi-svgrepo-com_1_" data-name="wifi-svgrepo-com (1)" transform="translate(225.864 1593.764)"><g id="Group_110" data-name="Group 110" transform="translate(10.9 11)"><path id="Path_129" data-name="Path 129" d="M12.518,11a1.518,1.518,0,1,0,0,3.037A31.945,31.945,0,0,1,44.427,45.953a1.518,1.518,0,0,0,3.037,0A34.985,34.985,0,0,0,12.518,11Z" transform="translate(-10.993 -11)" fill="#fff" stroke="#f6f6f6" stroke-width="1"></path><path id="Path_130" data-name="Path 130" d="M13.181,442.3a2.181,2.181,0,1,0,2.181,2.181A2.184,2.184,0,0,0,13.181,442.3Z" transform="translate(-10.993 -410.198)" fill="#fff" stroke="#f6f6f6" stroke-width="1"></path><path id="Path_131" data-name="Path 131" d="M37.837,166.549s.156-6.885-6.84-7.413a5.722,5.722,0,0,0-2.843.64A24.275,24.275,0,0,0,12.418,154a1.518,1.518,0,1,0,0,3.037,21.271,21.271,0,0,1,13.3,4.667,7.35,7.35,0,0,0-1.563,4.846,1.534,1.534,0,0,0-1.853,1.518v.782a13.692,13.692,0,0,0-9.877-4.213,1.518,1.518,0,1,0,0,3.037,10.761,10.761,0,0,1,9.751,6.379,28.612,28.612,0,0,1,.127,4.243,1.515,1.515,0,0,0,1.518,1.518h14.35a1.515,1.515,0,0,0,1.518-1.518V168.068A1.592,1.592,0,0,0,37.837,166.549ZM27.2,165.969a3.8,3.8,0,0,1,7.592,0v.581H27.2Zm9.453,10.808H25.347v-7.19H36.661v7.19Z" transform="translate(-10.9 -143.356)" fill="#fff" stroke="#f6f6f6" stroke-width="1"></path></g></g></g></svg>