<svg xmlns="http://www.w3.org/2000/svg" xmlns:xlink="http://www.w3.org/1999/xlink" width="50" height="50" viewBox="0 0 50 50"><defs><clipPath id="clip-path"><rect id="Rectangle_85" data-name="Rectangle 85" width="50" height="50" transform="translate(230 1598)" fill="#fff" stroke="#707070" stroke-width="1"></rect></clipPath></defs><g id="Mask_Group_24" data-name="Mask Group 24" transform="translate(-230 -1598)" clip-path="url(#clip-path)"><g id="Group_55" data-name="Group 55" transform="translate(230 1598)"><path id="Path_102" data-name="Path 102" d="M12.744,19.624H28.121a1.368,1.368,0,0,0,1.366-1.366V2.881a1.368,1.368,0,0,0-1.366-1.366H12.744a1.368,1.368,0,0,0-1.366,1.366V3.2H8.753V2.6a2.6,2.6,0,0,0-5.207,0V29.525a.732.732,0,0,0,1.465,0V2.6a1.139,1.139,0,1,1,2.278,0V44.377H5.011V32.866a.732.732,0,0,0-1.465,0V44.377H2.809A2.81,2.81,0,0,0,0,47.183v1.653a1.157,1.157,0,0,0,1.156,1.156h9.988A1.159,1.159,0,0,0,12.3,48.836V47.183a2.81,2.81,0,0,0-2.809-2.806h-.74V17.938h2.624v.319a1.368,1.368,0,0,0,1.367,1.366ZM10.838,47.183v1.344H1.465V47.183a1.344,1.344,0,0,1,1.344-1.341H9.494A1.344,1.344,0,0,1,10.838,47.183ZM8.753,8.194h2.624v4.75H8.753Zm4.089-5.215h15.18v15.18H12.842V2.979ZM11.377,4.665V6.73H8.753V4.665ZM8.753,16.474V14.409h2.624v2.065Z" transform="translate(0 0)" fill="#fff"></path><path id="Path_103" data-name="Path 103" d="M183.979,242.971a2.992,2.992,0,0,0-2.98-3h-2.8l-.959-2.023a5.1,5.1,0,0,0-1.794-2.49,6.079,6.079,0,0,0-3.027-.4H160.036a6.068,6.068,0,0,0-3.025.4,5.1,5.1,0,0,0-1.793,2.49l-.959,2.023h-2.8a3,3,0,0,0-.041,5.993l-.848,1.789a3.467,3.467,0,0,0-.5,2.1c0,.085,0,6.662,0,6.662,0,.554,0,1.406.789,1.72v2.042a1.833,1.833,0,0,0,1.831,1.831h3.4a1.832,1.832,0,0,0,1.829-1.831v-1.92h6.667a.732.732,0,0,0,0-1.465H151.543c-.007-.122-.008-6.959-.008-7.046a2.276,2.276,0,0,1,.359-1.463l1.145-2.416h26.379l1.146,2.417a2.251,2.251,0,0,1,.356,1.449c0,.09,0,6.936-.008,7.059h-13a.732.732,0,0,0,0,1.465h6.623v1.92a1.833,1.833,0,0,0,1.831,1.831h3.4a1.833,1.833,0,0,0,1.831-1.831v-2.042c.785-.315.786-1.167.786-1.72,0,0,0-6.586,0-6.674a3.475,3.475,0,0,0-.5-2.085l-.848-1.79a2.992,2.992,0,0,0,2.94-3Zm-34.035,0a1.526,1.526,0,0,1,1.515-1.532h2.106l-1.452,3.064h-.653A1.525,1.525,0,0,1,149.944,242.971Zm6.508,15.387v1.92a.37.37,0,0,1-.364.366h-3.4a.371.371,0,0,1-.367-.366v-1.92Zm.09-19.78c.514-1.084.822-1.636,1.186-1.84a5.79,5.79,0,0,1,2.3-.208h12.393a5.8,5.8,0,0,1,2.306.208c.364.2.673.756,1.186,1.84l2.808,5.924H153.734Zm23.592,21.7a.371.371,0,0,1-.367.366h-3.4a.371.371,0,0,1-.367-.366v-1.92h4.13ZM181,244.5h-.653l-1.452-3.064H181a1.532,1.532,0,0,1,0,3.064Z" transform="translate(-133.979 -212.11)" fill="#fff"></path><path id="Path_104" data-name="Path 104" d="M285.445,385.9h7.427a.732.732,0,1,0,0-1.465h-7.427a.732.732,0,1,0,0,1.465Z" transform="translate(-256.909 -346.894)" fill="#fff"></path><path id="Path_105" data-name="Path 105" d="M285.445,419.8h7.427a.732.732,0,0,0,0-1.465h-7.427a.732.732,0,0,0,0,1.465Z" transform="translate(-256.909 -377.485)" fill="#fff"></path><path id="Path_106" data-name="Path 106" d="M399.29,373.4a3.076,3.076,0,1,0-3.074,3.077A3.079,3.079,0,0,0,399.29,373.4Zm-4.687,0a1.611,1.611,0,1,1,1.612,1.612A1.614,1.614,0,0,1,394.6,373.4Z" transform="translate(-354.747 -334.156)" fill="#fff"></path><path id="Path_107" data-name="Path 107" d="M204.35,373.4a3.076,3.076,0,1,0,3.074-3.077A3.079,3.079,0,0,0,204.35,373.4Zm4.687,0a1.611,1.611,0,1,1-1.612-1.612A1.614,1.614,0,0,1,209.037,373.4Z" transform="translate(-184.394 -334.156)" fill="#fff"></path></g></g></svg>