<svg xmlns="http://www.w3.org/2000/svg" xmlns:xlink="http://www.w3.org/1999/xlink" width="50" height="50" viewBox="0 0 50 50"><defs><clipPath id="clip-path"><rect id="Rectangle_85" data-name="Rectangle 85" width="50" height="50" transform="translate(230 1598)" fill="#fff" stroke="#707070" stroke-width="1"></rect></clipPath></defs><g id="Mask_Group_24" data-name="Mask Group 24" transform="translate(-230 -1598)" clip-path="url(#clip-path)"><g id="monitor-tv-svgrepo-com" transform="translate(230 1573.937)"><g id="Group_112" data-name="Group 112" transform="translate(0 26.667)"><g id="Group_111" data-name="Group 111" transform="translate(0 0)"><path id="Path_132" data-name="Path 132" d="M45.833,26.667H4.167A4.167,4.167,0,0,0,0,30.834v31.25A4.167,4.167,0,0,0,4.167,66.25H18.75v3.125H11.458a1.042,1.042,0,0,0,0,2.083H38.542a1.042,1.042,0,0,0,0-2.083H31.25V66.25H45.833A4.167,4.167,0,0,0,50,62.084V30.834A4.167,4.167,0,0,0,45.833,26.667ZM29.167,69.375H20.833V66.25h8.333Zm18.75-7.292a2.083,2.083,0,0,1-2.083,2.083H4.167a2.083,2.083,0,0,1-2.083-2.083V30.834A2.083,2.083,0,0,1,4.167,28.75H45.833a2.083,2.083,0,0,1,2.083,2.083Z" transform="translate(0 -26.667)" fill="#fff"></path></g></g><g id="Group_114" data-name="Group 114" transform="translate(4.167 30.834)"><g id="Group_113" data-name="Group 113" transform="translate(0 0)"><path id="Path_133" data-name="Path 133" d="M42.667,69.333V96.416H84.334V69.333Zm39.583,25H44.75V71.416h37.5Z" transform="translate(-42.667 -69.333)" fill="#fff"></path></g></g><g id="Group_116" data-name="Group 116" transform="translate(22.917 58.959)"><g id="Group_115" data-name="Group 115"><circle id="Ellipse_7" data-name="Ellipse 7" cx="2.083" cy="2.083" r="2.083" fill="#fff"></circle></g></g></g></g></svg>