<svg xmlns="http://www.w3.org/2000/svg" xmlns:xlink="http://www.w3.org/1999/xlink" width="50" height="50" viewBox="0 0 50 50"><defs><clipPath id="clip-path"><rect id="Rectangle_85" data-name="Rectangle 85" width="50" height="50" transform="translate(230 1598)" fill="#fff" stroke="#707070" stroke-width="1"></rect></clipPath></defs><g id="Mask_Group_24" data-name="Mask Group 24" transform="translate(-230 -1598)" clip-path="url(#clip-path)"><path id="gate" d="M49.842,4.8a.928.928,0,0,0-.771-.41H48.019a2.679,2.679,0,1,0-4.775,0h-1.4a.929.929,0,0,0-.809,1.384L42.24,7.923a.93.93,0,0,0,.643.457v2.328a14.2,14.2,0,0,1-3.024-.389.682.682,0,0,0-.118-.031A9.162,9.162,0,0,1,35.32,7.5,9.619,9.619,0,0,0,27.9,4.167a1.7,1.7,0,0,0-1.676-1.44H23.776A1.7,1.7,0,0,0,22.1,4.167,9.619,9.619,0,0,0,14.681,7.5a9.162,9.162,0,0,1-4.421,2.791.691.691,0,0,0-.118.031,14.2,14.2,0,0,1-3.024.389V8.38a.93.93,0,0,0,.644-.458L8.97,5.776a.929.929,0,0,0-.809-1.384h-1.4a2.679,2.679,0,1,0-4.775,0H.929a.929.929,0,0,0-.86,1.279L.944,7.817a.925.925,0,0,0,.677.56v4.176a.732.732,0,0,0,1.465,0V8.395H5.653V28.643H3.086V15.494a.732.732,0,0,0-1.465,0V29.18a.93.93,0,0,0,.929.929h44.9a.93.93,0,0,0,.929-.929V12.922a.732.732,0,1,0-1.465,0V28.644H44.348V8.395h2.567v1.62a.732.732,0,1,0,1.465,0V8.377a.926.926,0,0,0,.677-.56l.875-2.146a.928.928,0,0,0-.09-.869ZM44.418,3.179a1.214,1.214,0,1,1,1.214,1.213A1.215,1.215,0,0,1,44.418,3.179ZM42.883,23.9H40.348V11.916a17.062,17.062,0,0,0,2.535.256Zm-6.749,0V10.171a9.311,9.311,0,0,0,2.749,1.384V23.9ZM34.669,8.909V23.9H31.92V6.613a10.962,10.962,0,0,1,2.374,1.928c.124.122.248.244.376.367ZM27.92,5.634a10.787,10.787,0,0,1,2.534.378V23.9H27.92ZM22.081,23.9H19.546V6.012a10.79,10.79,0,0,1,2.535-.378Zm-4-17.282V23.9H15.332V8.909c.127-.123.252-.245.376-.367a10.962,10.962,0,0,1,2.374-1.928ZM11.118,23.9V11.556a9.3,9.3,0,0,0,2.749-1.384V23.9ZM9.653,11.916V23.9H7.118V12.172A17.068,17.068,0,0,0,9.653,11.916Zm-6.5-8.737A1.214,1.214,0,1,1,4.369,4.392,1.215,1.215,0,0,1,3.155,3.179ZM2.164,6.93,1.727,5.857H7.243l-.6,1.073ZM7.118,25.36H22.081v3.283H7.118ZM23.545,4.422a.23.23,0,0,1,.23-.23h.5V9.981a.732.732,0,0,0,1.465,0V4.192h.486a.23.23,0,0,1,.23.23V28.643h-.716V12.922a.732.732,0,0,0-1.465,0V28.643h-.729ZM42.883,28.643H27.92V25.36H42.883ZM43.362,6.93l-.6-1.073h5.516L47.837,6.93Zm0,0" transform="translate(230 1605.696)" fill="#fff"></path></g></svg>