<svg xmlns="http://www.w3.org/2000/svg" xmlns:xlink="http://www.w3.org/1999/xlink" width="50" height="50" viewBox="0 0 50 50"><defs><clipPath id="clip-path"><rect id="Rectangle_85" data-name="Rectangle 85" width="50" height="50" transform="translate(230 1598)" fill="#fff" stroke="#707070" stroke-width="1"></rect></clipPath></defs><g id="Mask_Group_24" data-name="Mask Group 24" transform="translate(-230 -1598)" clip-path="url(#clip-path)"><path id="television" d="M3.223,73.464H6.291L4.3,77.5a1.816,1.816,0,0,0,3.139,1.812l3.842-5.746a.791.791,0,0,0,.057-.1H38.659a.791.791,0,0,0,.057.1l3.842,5.746A1.816,1.816,0,0,0,45.7,77.5l-1.988-4.035h3.068A3.226,3.226,0,0,0,50,70.241V40.652a3.226,3.226,0,0,0-3.223-3.223H3.223A3.226,3.226,0,0,0,0,40.652v29.59A3.226,3.226,0,0,0,3.223,73.464Zm2.921,4.979A.254.254,0,0,1,5.7,78.19l2.322-4.713.005-.013h1.44Zm35.83-4.966L44.3,78.19a.254.254,0,0,1-.438.253l-3.329-4.979h1.44l.005.013Zm4.8-1.575H3.223a1.662,1.662,0,0,1-1.66-1.66v-.732H48.438v.732c0,.916-1.66,1.66-1.66,1.66ZM3.223,38.992H46.777a1.662,1.662,0,0,1,1.66,1.66V67.947H1.563V40.652A1.662,1.662,0,0,1,3.223,38.992ZM25.784,70.705A.783.783,0,1,1,25,69.924h0A.781.781,0,0,1,25.784,70.705Zm-17.5-24.67a.781.781,0,0,1,.781-.781H22.687a.781.781,0,0,1,0,1.563h-6.03V60.9a.781.781,0,1,1-1.562,0V46.816H9.064A.781.781,0,0,1,8.283,46.035Zm17.856.347a.781.781,0,0,1,1.412-.67l6.34,13.357L40.23,45.712a.781.781,0,0,1,1.412.67L34.6,61.226a.781.781,0,0,1-1.412,0Z" transform="translate(230 1564.228)" fill="#fff"></path></g></svg>