<svg xmlns="http://www.w3.org/2000/svg" xmlns:xlink="http://www.w3.org/1999/xlink" width="50" height="50" viewBox="0 0 50 50"><defs><clipPath id="clip-path"><rect id="Rectangle_85" data-name="Rectangle 85" width="50" height="50" transform="translate(230 1598)" fill="#fff" stroke="#707070" stroke-width="1"></rect></clipPath></defs><g id="Mask_Group_24" data-name="Mask Group 24" transform="translate(-230 -1598)" clip-path="url(#clip-path)"><g id="washer" transform="translate(195.961 1598)"><g id="Group_33" data-name="Group 33" transform="translate(51.004 3.528)"><g id="Group_32" data-name="Group 32"><path id="Path_80" data-name="Path 80" d="M176.819,36.126a3.1,3.1,0,1,0,3.1,3.1A3.1,3.1,0,0,0,176.819,36.126Zm0,4.737a1.636,1.636,0,1,1,1.636-1.636A1.638,1.638,0,0,1,176.819,40.863Z" transform="translate(-173.718 -36.126)" fill="#fff"></path></g></g><g id="Group_35" data-name="Group 35" transform="translate(42.616 3.528)"><g id="Group_34" data-name="Group 34"><path id="Path_81" data-name="Path 81" d="M90.926,36.126a3.1,3.1,0,1,0,3.1,3.1A3.1,3.1,0,0,0,90.926,36.126Zm0,4.737a1.636,1.636,0,1,1,1.636-1.636A1.638,1.638,0,0,1,90.926,40.863Z" transform="translate(-87.825 -36.126)" fill="#fff"></path></g></g><g id="Group_37" data-name="Group 37" transform="translate(62.514 3.528)"><g id="Group_36" data-name="Group 36"><path id="Path_82" data-name="Path 82" d="M301.672,36.126h-8.425a1.672,1.672,0,0,0-1.67,1.67v2.862a1.672,1.672,0,0,0,1.67,1.67h8.425a1.672,1.672,0,0,0,1.67-1.67V37.8A1.672,1.672,0,0,0,301.672,36.126Zm.2,4.532a.205.205,0,0,1-.2.2h-8.425a.205.205,0,0,1-.2-.2V37.8a.205.205,0,0,1,.2-.2h8.425a.205.205,0,0,1,.2.2Z" transform="translate(-291.578 -36.126)" fill="#fff"></path></g></g><g id="Group_39" data-name="Group 39" transform="translate(45.576 15.004)"><g id="Group_38" data-name="Group 38"><path id="Path_83" data-name="Path 83" d="M131.6,153.637a13.334,13.334,0,0,0-8.22,2.8.732.732,0,1,0,.9,1.159,11.882,11.882,0,0,1,7.325-2.5,12,12,0,1,1-9.3,4.423.732.732,0,0,0-1.135-.926,13.462,13.462,0,1,0,10.439-4.962Z" transform="translate(-118.139 -153.637)" fill="#fff"></path></g></g><g id="Group_41" data-name="Group 41" transform="translate(37.723)"><g id="Group_40" data-name="Group 40"><path id="Path_84" data-name="Path 84" d="M80.354,44.314V5.629A5.635,5.635,0,0,0,74.726,0H43.351a5.635,5.635,0,0,0-5.628,5.629V44.372A5.634,5.634,0,0,0,43.351,50H74.726a5.634,5.634,0,0,0,5.626-5.545C80.355,44.428,80.356,44.333,80.354,44.314Zm-1.465-.675H72.826a.732.732,0,1,0,0,1.465h6a4.17,4.17,0,0,1-4.1,3.431H43.351a4.17,4.17,0,0,1-4.1-3.431H69.9a.732.732,0,1,0,0-1.465H39.188V13.257h39.7Zm0-31.847h-39.7V5.629a4.169,4.169,0,0,1,4.163-4.164H74.726A4.169,4.169,0,0,1,78.89,5.629Z" transform="translate(-37.723)" fill="#fff"></path></g></g><g id="Group_43" data-name="Group 43" transform="translate(48.981 18.408)"><g id="Group_42" data-name="Group 42"><path id="Path_85" data-name="Path 85" d="M163.06,188.5a10.063,10.063,0,0,0-9.954,11.509h0a10.059,10.059,0,0,0,19.907,0h0A10.063,10.063,0,0,0,163.06,188.5Zm5.648,16.534a8.595,8.595,0,0,1-14.076-4.79l.452-.307a2.271,2.271,0,0,1,2.531,0,3.749,3.749,0,0,0,4.179,0,2.275,2.275,0,0,1,2.531,0,3.749,3.749,0,0,0,4.18,0,2.267,2.267,0,0,1,2.531,0l.452.307A8.591,8.591,0,0,1,168.708,205.036Zm2.945-6.44-.016-.009a3.831,3.831,0,0,0-1.27-.454,3.646,3.646,0,0,0-1.691.115,3.718,3.718,0,0,0-1,.48,2.272,2.272,0,0,1-2.531,0,3.712,3.712,0,0,0-4.179,0,2.268,2.268,0,0,1-2.531,0,3.71,3.71,0,0,0-3.956-.14l-.016.009c0-.012,0-.024,0-.036a8.593,8.593,0,0,1,17.186,0C171.653,198.572,171.653,198.584,171.653,198.6Z" transform="translate(-153.002 -188.502)" fill="#fff"></path></g></g></g></g></svg>