<svg xmlns="http://www.w3.org/2000/svg" xmlns:xlink="http://www.w3.org/1999/xlink" width="50" height="50" viewBox="0 0 50 50"><defs><clipPath id="clip-path"><rect id="Rectangle_85" data-name="Rectangle 85" width="50" height="50" transform="translate(230 1598)" fill="#fff" stroke="#707070" stroke-width="1"></rect></clipPath></defs><g id="Mask_Group_24" data-name="Mask Group 24" transform="translate(-230 -1598)" clip-path="url(#clip-path)"><g id="Layer_2" data-name="Layer 2" transform="translate(229.996 1597.618)"><g id="Layer_1" data-name="Layer 1" transform="translate(0.005 0)"><path id="Path_109" data-name="Path 109" d="M40.856,48.926h4.817V10.088c-1.761-.436-3.5-.874-5.236-1.293-4.808-1.157-9.615-2.319-14.422-3.443A4.178,4.178,0,0,0,24.18,5.3c-6.354,1.5-12.7,3.043-19.048,4.576-.235.057-.465.134-.807.231V20.729H2.51V10.569c-.484.1-.813.177-1.145.231C.457,10.95.046,10.632.019,9.719c-.025-.866-.012-1.733,0-2.6C.027,6.08.187,5.857,1.193,5.606Q4.21,4.864,7.237,4.142,15.7,2.1,24.175.092A3.88,3.88,0,0,1,25.9.1Q37.287,2.8,48.67,5.569c1.184.285,1.322.469,1.327,1.709,0,.8.017,1.594,0,2.39-.026.978-.433,1.3-1.4,1.125-.3-.053-.6-.124-.889-.184-.248.783-.337,36.406-.108,38.345h2.307V50.7H33.335V49.044h5.537c.248-.838.3-16.832.079-18.227H18.379V29.062c2.266-.079,4.537-.025,6.807-.035,2.286-.01,4.571,0,6.856,0h6.947V27.5H18.384V25.734c1.105-.011,2.228-.028,3.355-.033s2.286,0,3.428,0H39.015V24.183H18.39V22.391H39.009V20.828h-28a9.036,9.036,0,0,1-.934-.014c-.594-.062-.88-.323-.9-.931q-.052-1.609,0-3.218c.02-.608.306-.866.9-.928a7.734,7.734,0,0,1,.83-.012h28.15c.241,0,.485-.011.726,0,.774.05,1.026.307,1.068,1.1.016.312,0,.619,0,.936V48.926ZM48.166,7.392c-.345-.105-.605-.2-.866-.264C40.179,5.411,33.067,3.684,25.931,2A4.366,4.366,0,0,0,24,2.034C18.378,3.352,12.77,4.714,7.16,6.064c-1.772.429-3.543.866-5.282,1.292V8.718c.431-.084.766-.137,1.1-.217,7.054-1.694,14.109-3.4,21.163-5.074a3.85,3.85,0,0,1,1.722-.007c7.1,1.682,14.181,3.4,21.27,5.1.318.077.646.108,1.037.171ZM39.021,17.559h-28v1.428h28Z" transform="translate(-0.005 0)" fill="#fff"></path><path id="Path_110" data-name="Path 110" d="M16.828,194.041H29.922c.277,0,.554-.014.83.006.724.052,1,.3,1.025,1.027.031,1,.011,2.009.011,3.012v9.454c0,1.423-.152,1.585-1.521,1.585H1.609c-1.345,0-1.519-.168-1.519-1.485V182.188c0-1.264.188-1.453,1.442-1.454q6.957-.007,13.913,0c1.178,0,1.379.209,1.381,1.41q.01,5.35,0,10.7Zm-1.848-.048V182.572H11.886c-.019.385-.046.723-.048,1.059-.007.934.014,1.869-.011,2.8-.02.7-.276,1.037-.885,1.051q-2.488.054-4.978,0c-.578-.012-.85-.332-.881-.943-.036-.691-.014-1.384-.015-2.075V182.6H1.935v11.395Zm0,13.306V195.877H11.886c-.019.387-.046.725-.048,1.062-.007.934.014,1.869-.011,2.8-.02.694-.277,1.035-.886,1.048q-2.488.052-4.978,0c-.578-.011-.849-.333-.881-.944-.035-.689-.012-1.382-.014-2.076V195.9H1.935V207.3Zm14.959,0V195.877H26.845c-.019.389-.046.726-.048,1.063-.006.934.015,1.869-.011,2.8-.019.693-.277,1.033-.886,1.047q-2.49.052-4.978,0c-.578-.011-.848-.333-.88-.946-.035-.689-.012-1.384-.014-2.076V195.9H16.893V207.3ZM6.9,185.658H9.98v-3.076H6.9ZM10,198.979v-3.116a30.173,30.173,0,0,0-3.067,0v3.124Zm11.859-.026h3.111V195.9H21.85Z" transform="translate(-0.079 -158.362)" fill="#fff"></path><path id="Path_111" data-name="Path 111" d="M172.07,71.495c-.587,0-1.175.03-1.759-.006a2.546,2.546,0,0,1,0-5.078c1.238-.051,2.486-.051,3.726,0a2.546,2.546,0,0,1,0,5.077C173.383,71.524,172.726,71.495,172.07,71.495Zm.1-3.312c-.519,0-1.037-.021-1.554,0-.465.025-.827.276-.823.759a.761.761,0,0,0,.83.752q1.554.033,3.11,0a.752.752,0,0,0,.822-.759.767.767,0,0,0-.83-.752C173.206,68.166,172.688,68.183,172.173,68.183Z" transform="translate(-147.173 -58.158)" fill="#fff"></path><path id="Path_112" data-name="Path 112" d="M96.372,263.821H94.73V262.2h1.609c.03.26.075.52.084.781A8.01,8.01,0,0,1,96.372,263.821Z" transform="translate(-83.007 -229.749)" fill="#fff"></path><path id="Path_113" data-name="Path 113" d="M96.5,369.56v1.621H94.88V369.56Z" transform="translate(-83.138 -323.822)" fill="#fff"></path><path id="Path_114" data-name="Path 114" d="M217.3,369.48v1.641H215.67V369.48Z" transform="translate(-188.979 -323.752)" fill="#fff"></path></g></g></g></svg>