<svg xmlns="http://www.w3.org/2000/svg" xmlns:xlink="http://www.w3.org/1999/xlink" width="50" height="50" viewBox="0 0 50 50"><defs><clipPath id="clip-path"><rect id="Rectangle_85" data-name="Rectangle 85" width="50" height="50" transform="translate(230 1598)" fill="#fff" stroke="#707070" stroke-width="1"></rect></clipPath></defs><g id="Mask_Group_24" data-name="Mask Group 24" transform="translate(-230 -1598)" clip-path="url(#clip-path)"><g id="layer1" transform="translate(233.032 1317.405)"><path id="path3590" d="M7.506,293.652a5.807,5.807,0,0,1,3.742-1.39c3.575,0,6.431,3.331,6.431,7.5V315.6H4.814v-.837a.732.732,0,1,0-1.424,0v1.667a.781.781,0,0,0,.712.83H25.54v11.67H22.68v-9.165a.723.723,0,1,0-1.429,0v10a.781.781,0,0,0,.717.837h4.283a.781.781,0,0,0,.717-.837v-12.5h15.72a.78.78,0,0,0,.717-.83V299.764c0-5.064-3.517-9.165-7.859-9.165H29.829v-8.335h5V285.6H31.97c-.953,0-.953,1.667,0,1.667h3.577a.782.782,0,0,0,.712-.837v-5a.78.78,0,0,0-.712-.83H29.111a.78.78,0,0,0-.712.83v17.62a3.29,3.29,0,0,0-2.148,3.216,3.136,3.136,0,0,0,2.86,3.333,3.135,3.135,0,0,0,2.858-3.333,3.291,3.291,0,0,0-2.141-3.215v-6.789h5.718c3.575,0,6.43,3.336,6.43,7.5V315.6H19.108V299.762a9.666,9.666,0,0,0-3.354-7.5h10.5c1.033.1,1.033-1.762,0-1.66l-14.976,0a7.125,7.125,0,0,0-4.6,1.7c-.814.638.049,2.047.83,1.356ZM2.529,295.6a2.113,2.113,0,0,0-2,2.2v12.272a2.113,2.113,0,0,0,2,2.2h13.15c.966.016.966-1.683,0-1.667H3.2l5.646-5.575,1.228,1.211a.639.639,0,0,0,.924,0l1.227-1.211,2.851,2.814c.728.718,1.652-.554.924-1.273l-2.669-2.633L16,301.3c.728-.718-.2-1.991-.924-1.273l-4.54,4.481-7.339-7.241H14.25c.966.016.966-1.683,0-1.667Zm-.571,2.63,5.782,5.706-5.782,5.7Zm28.582,4.036a1.447,1.447,0,1,1-1.427-1.667A1.55,1.55,0,0,1,30.54,302.262Z" transform="translate(0)" fill="#fff"></path></g></g></svg>