<svg xmlns="http://www.w3.org/2000/svg" width="324.085" height="32.068" viewBox="0 0 324.085 32.068"><path id="Path_134" data-name="Path 134" d="M16.531,8.957H23.07L16.061-2.711c3.6-1.566,5.364-3.72,5.364-7.322,0-5.482-3.681-8.105-10.924-8.105H2.044v27.1H7.8V-1.654h2.937ZM7.8-14.027h2.584c3.485,0,5.09,1.214,5.09,3.994,0,3.054-1.645,4.307-4.659,4.307H7.8ZM43.117-1.889c0-6.617-3.485-10.533-9.358-10.533-6.069,0-9.436,4.855-9.436,11.12,0,6.5,3.485,10.885,10.141,10.885a12.237,12.237,0,0,0,7.87-2.819l-2.31-3.132a8.4,8.4,0,0,1-5.051,1.8c-2.663,0-4.542-1.175-4.934-5.168H43C43.039-.322,43.117-1.184,43.117-1.889ZM37.6-3.22H30.04c.313-3.955,1.645-5.4,3.837-5.4,2.663,0,3.72,2.036,3.72,5.168Zm16.484-9.2c-5.012,0-8.223,2.663-8.223,6.186,0,3.132,1.958,5.208,6.147,6.382C55.843,1.2,56.587,1.714,56.587,3.28c0,1.41-1.331,2.271-3.406,2.271a9.134,9.134,0,0,1-5.56-2.036L44.879,6.569a12.3,12.3,0,0,0,8.457,3.015c4.934,0,8.966-2.428,8.966-6.735,0-3.681-2.349-5.4-6.5-6.539C52.162-4.747,51.457-5.3,51.457-6.509c0-1.135,1.018-1.879,2.858-1.879a9.589,9.589,0,0,1,5.168,1.645L61.6-9.915A11.817,11.817,0,0,0,54.081-12.421ZM68.568-22.484a3.2,3.2,0,0,0-3.367,3.25,3.2,3.2,0,0,0,3.367,3.25,3.233,3.233,0,0,0,3.406-3.25A3.233,3.233,0,0,0,68.568-22.484Zm2.78,10.689h-5.56V8.957h5.56Zm17.659-8.888v10.337a7.113,7.113,0,0,0-5.051-2.075c-5.129,0-8.418,4.581-8.418,11,0,6.617,2.663,11,7.87,11a6.984,6.984,0,0,0,5.952-3.172l.313,2.545h4.894V-20.056ZM85.052,5.433c-2.232,0-3.72-1.645-3.72-6.852,0-4.855,1.645-6.891,4.072-6.891a4.522,4.522,0,0,1,3.6,1.958v9.28C87.911,4.572,86.736,5.433,85.052,5.433Zm32.5-7.322c0-6.617-3.485-10.533-9.358-10.533-6.069,0-9.436,4.855-9.436,11.12,0,6.5,3.485,10.885,10.141,10.885a12.237,12.237,0,0,0,7.87-2.819l-2.31-3.132a8.4,8.4,0,0,1-5.051,1.8c-2.663,0-4.542-1.175-4.934-5.168h12.96C117.473-.322,117.551-1.184,117.551-1.889ZM112.03-3.22h-7.557c.313-3.955,1.645-5.4,3.837-5.4,2.663,0,3.72,2.036,3.72,5.168Zm21.1-9.2a7.742,7.742,0,0,0-6.3,3.25l-.431-2.623h-4.855V8.957h5.56V-5.373c1.175-1.84,2.428-2.9,4.033-2.9,1.37,0,2.271.666,2.271,3.054V8.957h5.56V-6.156C138.969-10.072,136.776-12.421,133.135-12.421Zm19.656,0c-6.069,0-9.906,4.581-9.906,11.159,0,6.617,3.8,10.846,9.984,10.846a10.408,10.408,0,0,0,6.813-2.428l-2.428-3.485a7.013,7.013,0,0,1-4.111,1.449c-2.623,0-4.385-1.605-4.385-6.421s1.645-6.813,4.424-6.813a6.309,6.309,0,0,1,4.072,1.488l2.428-3.289A9.965,9.965,0,0,0,152.79-12.421ZM179.807-1.889c0-6.617-3.485-10.533-9.358-10.533-6.069,0-9.436,4.855-9.436,11.12,0,6.5,3.485,10.885,10.141,10.885a12.237,12.237,0,0,0,7.87-2.819l-2.31-3.132a8.4,8.4,0,0,1-5.051,1.8c-2.663,0-4.542-1.175-4.934-5.168h12.96C179.729-.322,179.807-1.184,179.807-1.889ZM174.286-3.22h-7.557c.313-3.955,1.645-5.4,3.837-5.4,2.663,0,3.72,2.036,3.72,5.168ZM208.038,8.957h6.539L207.568-2.711c3.6-1.566,5.364-3.72,5.364-7.322,0-5.482-3.681-8.105-10.924-8.105h-8.457v27.1h5.756V-1.654h2.937Zm-8.732-22.984h2.584c3.485,0,5.09,1.214,5.09,3.994,0,3.054-1.644,4.307-4.659,4.307h-3.015Zm37.628-4.111h-5.873L225.736,4.18l-5.521-22.318h-6.147l8.066,27.1h7.009Zm20.478,0h-8.379v27.1h5.756V-.283h3.093c6.186,0,10.65-2.858,10.65-9.123C268.532-15.319,264.3-18.138,257.412-18.138Zm0,13.626h-2.623v-9.475h2.545c3.367,0,5.247,1.41,5.247,4.581C262.581-5.726,260.584-4.512,257.412-4.512ZM286.348,3.2V-5.178c0-4.7-2.506-7.244-8.262-7.244a21.568,21.568,0,0,0-7.674,1.527l1.292,3.72a18.714,18.714,0,0,1,5.482-1.1c2.584,0,3.681.822,3.681,3.406v1.018h-2.388c-6.108,0-9.554,2.467-9.554,7.009,0,3.759,2.584,6.421,6.735,6.421a7.073,7.073,0,0,0,6.226-3.093c.861,2.036,2.428,2.78,4.777,3.015l1.175-3.681C286.857,5.473,286.348,4.885,286.348,3.2ZM277.224,5.59c-1.762,0-2.7-1.057-2.7-2.9,0-2.271,1.488-3.367,4.542-3.367h1.8V3.28A4.053,4.053,0,0,1,277.224,5.59Zm25.333-17.972c-2.388,0-4.424,1.723-5.4,4.62l-.47-4.033h-4.855V8.957h5.56V-1.654c.7-3.406,1.919-5.325,4.464-5.325a7.516,7.516,0,0,1,1.879.274l.9-5.364A7.189,7.189,0,0,0,302.558-12.382Zm10.337-8.3-5.56.626V8.957h5.56ZM325.5-11.795h-5.756L313.09-2.4l6.7,11.355h6.343L318.885-2.672Z" transform="translate(-2.044 22.484)" fill="#fff"></path></svg>