<svg xmlns="http://www.w3.org/2000/svg" xmlns:xlink="http://www.w3.org/1999/xlink" width="50" height="50" viewBox="0 0 50 50"><defs><clipPath id="clip-path"><rect id="Rectangle_85" data-name="Rectangle 85" width="50" height="50" transform="translate(230 1598)" fill="#fff" stroke="#707070" stroke-width="1"></rect></clipPath></defs><g id="Mask_Group_24" data-name="Mask Group 24" transform="translate(-230 -1598)" clip-path="url(#clip-path)"><g id="_021-cctv" data-name="021-cctv" transform="translate(229.921 1598)"><path id="Path_480" data-name="Path 480" d="M47.148,8.216h-.412l2.229-4.259A2.7,2.7,0,0,0,46.57,0H10.255a2.707,2.707,0,0,0-2.7,2.7V13.122a2.707,2.707,0,0,0,2.7,2.7h.813v7.9a1.465,1.465,0,0,0,1.465,1.465H14v3.254a3.05,3.05,0,0,0,2.588,3.011v6.2H9.31v-2.1a1.465,1.465,0,0,0-1.465-1.465h-6.3A1.465,1.465,0,0,0,.079,35.558V48.55a1.465,1.465,0,0,0,1.465,1.465h6.3A1.465,1.465,0,0,0,9.31,48.55v-2.1H21.019a4.37,4.37,0,0,0,4.365-4.365V31.459a3.051,3.051,0,0,0,2.59-3.012V25.193H40.115a1.465,1.465,0,0,0,1.465-1.465v-4.44h5.568a2.934,2.934,0,0,0,2.931-2.931V11.147A2.934,2.934,0,0,0,47.148,8.216ZM6.379,47.085H3.01V37.023h3.37s0,9.844,0,10.062Zm16.074-5a1.436,1.436,0,0,1-1.434,1.434H9.31V40.589h8.747a1.465,1.465,0,0,0,1.465-1.465v-7.63h2.931V42.085Zm2.59-13.638a.115.115,0,0,1-.115.115H17.049a.115.115,0,0,1-.114-.115V25.193h8.108ZM38.65,22.263H14V15.825H30.469A1.465,1.465,0,0,0,31.786,15l1.882-3.856H38.65Zm-5.9-14.046a1.465,1.465,0,0,0-1.317.822l-1.882,3.856H10.482V2.931H46.195L44.078,6.976a2.306,2.306,0,0,1-2.05,1.241H32.753Zm14.395,8.141H41.58V11.147l5.568,0a.013.013,0,0,1,0,0Z" transform="translate(0)" fill="#fff" stroke="#f6f6f6" stroke-width="1"></path></g></g></svg>