<svg xmlns="http://www.w3.org/2000/svg" xmlns:xlink="http://www.w3.org/1999/xlink" width="50" height="50" viewBox="0 0 50 50"><defs><clipPath id="clip-path"><rect id="Rectangle_85" data-name="Rectangle 85" width="50" height="50" transform="translate(230 1598)" fill="#fff" stroke="#707070" stroke-width="1"></rect></clipPath></defs><g id="Mask_Group_24" data-name="Mask Group 24" transform="translate(-230 -1598)" clip-path="url(#clip-path)"><g id="banner" transform="translate(225 1593)"><path id="Path_73" data-name="Path 73" d="M52.063,16.9H38.706a2.923,2.923,0,0,0-2.882,2.453h-2.8V18.264a1.368,1.368,0,0,0-.711-1.2V13.342l7.608-4.226a1.032,1.032,0,0,1,.476-.125h1.265a3.421,3.421,0,0,0,3.359,2.835h.7a3.409,3.409,0,0,0,3.359-2.835h.258a2,2,0,0,0,2-2V7a2,2,0,0,0-2-2H41.776a9.147,9.147,0,0,0-4.7,1.3l-5.3,3.164a3.14,3.14,0,0,0-3.57,0L22.911,6.3a9.147,9.147,0,0,0-4.7-1.3H10.64a2,2,0,0,0-2,2v.008a2,2,0,0,0,2,2H10.9a3.421,3.421,0,0,0,3.359,2.835h.7a3.409,3.409,0,0,0,3.359-2.835h1.265a.945.945,0,0,1,.476.125l7.608,4.226v3.726a1.368,1.368,0,0,0-.711,1.2v1.086h-2.8a2.923,2.923,0,0,0-2.882-2.453H7.929A2.917,2.917,0,0,0,5,19.826v27.2a2.93,2.93,0,0,0,2.929,2.929H21.287A2.923,2.923,0,0,0,24.169,47.5h2.8v1.086a1.368,1.368,0,0,0,.711,1.2v4.632a.586.586,0,1,0,1.172,0V49.962h2.3v4.452a.586.586,0,1,0,1.172,0V49.782a1.368,1.368,0,0,0,.711-1.2V47.5h2.8a2.923,2.923,0,0,0,2.882,2.453H52.071A2.93,2.93,0,0,0,55,47.025v-27.2A2.952,2.952,0,0,0,52.063,16.9Zm-27.847,6.14h2.742v1.086a1.368,1.368,0,0,0,.711,1.2V41.533a1.368,1.368,0,0,0-.711,1.2v1.086H24.216Zm4.624,2.453h2.3V41.354h-2.3Zm2.828-7.421a.193.193,0,0,1,.2.2v5.858a.193.193,0,0,1-.2.2H28.332a.193.193,0,0,1-.2-.2V18.264a.193.193,0,0,1,.2-.2ZM28.324,48.782a.193.193,0,0,1-.2-.2V42.728a.193.193,0,0,1,.2-.2H31.66a.193.193,0,0,1,.2.2v5.858a.193.193,0,0,1-.2.2Zm4-7.249V25.317a1.368,1.368,0,0,0,.711-1.2V23.036h2.742v20.77H33.035V42.728A1.368,1.368,0,0,0,32.324,41.533Zm3.453-21v1.344H33.035V20.529Zm9.959-9.858h-.7a2.247,2.247,0,0,1-2.172-1.664h5.046A2.254,2.254,0,0,1,45.736,10.671ZM37.675,7.3a8.014,8.014,0,0,1,4.109-1.133h7.569A.833.833,0,0,1,50.18,7v.008a.833.833,0,0,1-.828.828H40.4a2.107,2.107,0,0,0-1.039.273l-7.038,3.906V10.507Zm-6.522,3.132V16.9h-2.3v-6.46A1.91,1.91,0,0,1,31.152,10.437Zm-16.185.234h-.7a2.247,2.247,0,0,1-2.172-1.664h5.046A2.254,2.254,0,0,1,14.967,10.671ZM20.63,8.109a2.129,2.129,0,0,0-1.039-.273H10.648a.833.833,0,0,1-.828-.828V7a.833.833,0,0,1,.828-.828h7.569a7.966,7.966,0,0,1,4.1,1.133l5.359,3.2v1.508Zm6.327,13.756H24.216V20.521h2.742Zm-3.913,25.16a1.76,1.76,0,0,1-1.758,1.758H7.929a1.76,1.76,0,0,1-1.758-1.758v-27.2a1.76,1.76,0,0,1,1.758-1.758H21.287a1.76,1.76,0,0,1,1.758,1.758Zm1.172-.7V44.986h2.742v1.344Zm8.819-1.344h2.742v1.344H33.035ZM53.82,47.025a1.76,1.76,0,0,1-1.758,1.758H38.706a1.76,1.76,0,0,1-1.758-1.758v-27.2a1.76,1.76,0,0,1,1.758-1.758H52.063a1.76,1.76,0,0,1,1.758,1.758Z" transform="translate(0 0)" fill="#fff"></path><path id="Path_74" data-name="Path 74" d="M61.062,23.73H48.486a.59.59,0,0,0-.586.586V50.734a.59.59,0,0,0,.586.586H61.062a.59.59,0,0,0,.586-.586V24.316A.59.59,0,0,0,61.062,23.73Zm-.586,26.418h-11.4V24.9h11.4Z" transform="translate(-9.39 -4.099)" fill="#fff"></path><path id="Path_75" data-name="Path 75" d="M21.662,23.73H9.086a.59.59,0,0,0-.586.586V50.734a.59.59,0,0,0,.586.586H21.662a.59.59,0,0,0,.586-.586V24.316A.59.59,0,0,0,21.662,23.73Zm-.586,26.418H9.672V24.9h11.4Z" transform="translate(-0.766 -4.099)" fill="#fff"></path><path id="Path_76" data-name="Path 76" d="M52.926,40.475a.579.579,0,0,0,.414-.172l2.273-2.273a.585.585,0,1,0-.828-.828l-2.273,2.273a.589.589,0,0,0,0,.828.614.614,0,0,0,.414.172Z" transform="translate(-10.362 -7.011)" fill="#fff"></path><path id="Path_77" data-name="Path 77" d="M52.866,43.876a.579.579,0,0,0,.414-.172l5.733-5.733a.585.585,0,0,0-.828-.828l-5.733,5.733a.589.589,0,0,0,0,.828.554.554,0,0,0,.414.172Z" transform="translate(-10.349 -6.998)" fill="#fff"></path><path id="Path_78" data-name="Path 78" d="M13.526,40.475a.579.579,0,0,0,.414-.172l2.273-2.273a.585.585,0,1,0-.828-.828l-2.273,2.273a.589.589,0,0,0,0,.828A.614.614,0,0,0,13.526,40.475Z" transform="translate(-1.738 -7.011)" fill="#fff"></path><path id="Path_79" data-name="Path 79" d="M13.466,43.876a.579.579,0,0,0,.414-.172l5.733-5.733a.585.585,0,0,0-.828-.828l-5.733,5.733a.589.589,0,0,0,0,.828A.579.579,0,0,0,13.466,43.876Z" transform="translate(-1.725 -6.998)" fill="#fff"></path></g></g></svg>