<svg xmlns="http://www.w3.org/2000/svg" xmlns:xlink="http://www.w3.org/1999/xlink" width="50" height="50" viewBox="0 0 50 50"><defs><clipPath id="clip-path"><rect id="Rectangle_85" data-name="Rectangle 85" width="50" height="50" transform="translate(230 1598)" fill="#fff" stroke="#707070" stroke-width="1"></rect></clipPath></defs><g id="Mask_Group_24" data-name="Mask Group 24" transform="translate(-230 -1598)" clip-path="url(#clip-path)"><g id="Group_46" data-name="Group 46" transform="translate(230 1600.388)"><path id="Path_90" data-name="Path 90" d="M50,30.637c0-.005,0-.011,0-.017,0-.022,0-.043,0-.065s0-.016,0-.023-.007-.039-.011-.058l-.006-.022c-.006-.021-.012-.041-.02-.061l0-.011-1.987-5.086a1.319,1.319,0,0,0-1.236-.844H43.11a.714.714,0,0,0,0,1.428h3.548l1.581,4.048H33.291l-.937-4.048h5.521a.714.714,0,0,0,0-1.428H8.991a1.319,1.319,0,0,0-1.236.844L5.769,30.38l0,.011c-.007.02-.014.04-.02.061l-.006.022c0,.019-.008.038-.011.058s0,.016,0,.023,0,.043,0,.065c0,.005,0,.011,0,.017V41.129a.714.714,0,1,0,1.428,0V31.354H22.282V42.206a1.08,1.08,0,0,0,1.8.809l3.781-3.35,3.781,3.35a1.08,1.08,0,0,0,1.8-.809V31.354H48.572V63.377a.93.93,0,0,1-.929.929H34.551c0-.008,0-.016,0-.024,0-.064,0-.128-.009-.192a2.569,2.569,0,0,0,3.024-3.48c-.025-.06-.053-.117-.082-.174l-.016-.031q-.043-.081-.091-.159l-.019-.03c-.034-.053-.069-.105-.107-.155l0,0c-.037-.05-.077-.1-.117-.144l-.022-.026q-.06-.067-.126-.13l-.026-.024c-.045-.043-.092-.084-.14-.123l0,0c-.048-.038-.1-.075-.148-.11l-.027-.019q-.076-.051-.155-.1l-.013-.008a2.571,2.571,0,0,0-.482-4.213q-.112-.059-.232-.108L24.644,50.522l5.172-1.6A2.346,2.346,0,0,0,31.361,46a2.292,2.292,0,0,0-.783-1.131,2.4,2.4,0,0,0-1.972-.463l-.01,0c-.04.009-4,.9-8.146,1.708l-.539.1-.417.08-.118.022-.7.132-.271.05c-5.2.958-6.662.975-7.067.92h0l-.018,0-.012,0h-.008a.553.553,0,0,1-.06-.014l-.117-.048L11.261,47a1.412,1.412,0,0,0-.006-1.088,1.438,1.438,0,0,0-.134-.247,1.412,1.412,0,0,0-.64-.518L6.647,43.579a1.421,1.421,0,0,0-1.853.779L.1,55.859a1.423,1.423,0,0,0,.779,1.853l3.835,1.564A1.421,1.421,0,0,0,6.572,58.5l.035-.086.884.36h0a7.842,7.842,0,0,1,2.3,1.447q.184.167.357.345t.335.367q.081.094.159.192a9.277,9.277,0,0,0,3.725,2.78l.995.406H8.077a.93.93,0,0,1-.929-.929V61.571a.714.714,0,1,0-1.428,0v1.807a2.36,2.36,0,0,0,2.357,2.357H18.865l9.2,3.75a2.568,2.568,0,0,0,3.524-2.654,2.652,2.652,0,0,0,1.424-.188,2.546,2.546,0,0,0,1.1-.908H47.642A2.36,2.36,0,0,0,50,63.377V30.637ZM24.83,25.878h6.059l.937,4.048H23.894Zm-2.4,4.048H7.479l1.581-4.048h14.3ZM32.01,41.434h0l-3.434-3.042a1.081,1.081,0,0,0-1.433,0L23.71,41.434V31.354h8.3ZM5.252,57.95,1.43,56.392,6.114,44.9l3.823,1.559Zm28.524,4.309-.819-.334h0l-8.534-3.48a.714.714,0,0,0-.539,1.322l8.534,3.48a1.134,1.134,0,0,1,.1.048l.027.016c.023.013.047.027.069.041l.031.023c.02.014.04.028.058.043l.032.029c.017.015.034.029.049.045s.021.023.031.034.029.031.043.047.019.026.029.038.025.032.036.048.018.029.026.043.021.033.03.049.015.031.023.047.017.033.025.05.013.033.019.05.013.033.019.051.01.035.015.052.01.034.014.052.007.036.01.053.007.035.009.053,0,.036,0,.054,0,.036,0,.054,0,.036,0,.054,0,.037,0,.056,0,.035-.006.053,0,.038-.007.057-.007.035-.011.052-.008.038-.013.058-.011.034-.016.05-.012.038-.019.057l-.018.039,0,.009a1.11,1.11,0,0,1-.586.578,1.208,1.208,0,0,1-.93.012L30,64.727l-.021-.007-.021-.01-6.941-2.83A.714.714,0,0,0,22.48,63.2l6.941,2.83.022.008.02.009a1.141,1.141,0,1,1-.862,2.113l-9.326-3.8h0l-4.367-1.781a7.844,7.844,0,0,1-3.151-2.351,9.274,9.274,0,0,0-3.725-2.78h0l-.885-.361L8.91,52.762l1.666-4.087.123.05a1.855,1.855,0,0,0,.725.131,18.511,18.511,0,0,0,3.117-.265c1.119-.158,2.491-.387,4.093-.681l.118-.022.227-.042.178-.033.206-.039.222-.042.179-.034.276-.053.143-.027.432-.084c4.127-.8,8.11-1.7,8.289-1.736l.054-.008A.938.938,0,0,1,30,46.415a.915.915,0,0,1-.6,1.142l-7.078,2.191a.714.714,0,0,0-.058,1.343l12.959,5.284a1.141,1.141,0,0,1-.425,2.2h-.006c-.035,0-.069,0-.1,0l-.031,0c-.026,0-.053-.006-.079-.011l-.05-.012-.059-.014c-.02-.006-.04-.014-.06-.021l-.048-.017-8.535-3.48a.714.714,0,0,0-.539,1.322L35.629,60.55a1.148,1.148,0,0,1,.2.1,1.142,1.142,0,0,1,.464,1.275q-.016.054-.038.107a1.151,1.151,0,0,1-.049.106,1.168,1.168,0,0,1-.265.328l-.019.017a1.147,1.147,0,0,1-1.154.175Z" transform="translate(0 -24.45)" fill="#fff"></path></g></g></svg>