<svg xmlns="http://www.w3.org/2000/svg" xmlns:xlink="http://www.w3.org/1999/xlink" width="50" height="50" viewBox="0 0 50 50"><defs><clipPath id="clip-path"><rect id="Rectangle_85" data-name="Rectangle 85" width="50" height="50" transform="translate(230 1598)" fill="#fff" stroke="#707070" stroke-width="1"></rect></clipPath><clipPath id="clip-path-2"><rect id="Rectangle_10" data-name="Rectangle 10" width="50" height="50" transform="translate(200.317 1096.317)" fill="#fff"></rect></clipPath></defs><g id="Mask_Group_24" data-name="Mask Group 24" transform="translate(-230 -1598)" clip-path="url(#clip-path)"><g id="Mask_Group_1" data-name="Mask Group 1" transform="translate(29.683 501.683)" clip-path="url(#clip-path-2)"><path id="coffe-vending-machine-svgrepo-com" d="M102.718,34.191h-.966l.676-9a.938.938,0,0,0-.935-1.008H93.8a.938.938,0,0,0-.935,1.008l.676,9h-.966a.938.938,0,1,0,0,1.876h10.146a.938.938,0,1,0,0-1.876Zm-2.846,0H95.419l-.311-4.135h3.059a.938.938,0,0,0,0-1.876h-3.2l-.159-2.118h5.674ZM89.325,44.117a.938.938,0,0,1-.938.938H86.031a.938.938,0,1,1,0-1.876h2.356A.938.938,0,0,1,89.325,44.117Zm20.874,0a.938.938,0,0,1-.938.938H106.9a.938.938,0,1,1,0-1.876h2.356A.938.938,0,0,1,110.2,44.117Zm-20.719-30.3a.938.938,0,0,1,.938-.938h2.445a.938.938,0,1,1,0,1.876H90.417A.938.938,0,0,1,89.479,13.813Zm0,3.5a.938.938,0,0,1,.938-.938h2.445a.938.938,0,1,1,0,1.876H90.417A.938.938,0,0,1,89.479,17.31ZM109.26,0H86.031a.938.938,0,0,0-.938.938V40.465a.938.938,0,0,0,.938.938h23.23a.938.938,0,0,0,.938-.938V.938A.938.938,0,0,0,109.26,0Zm-.938,39.528H86.969V1.876h21.354ZM89.479,6.817a.938.938,0,0,1,.938-.938h2.445a.938.938,0,1,1,0,1.876H90.417A.938.938,0,0,1,89.479,6.817Zm0,3.5a.938.938,0,0,1,.938-.938h2.445a.938.938,0,1,1,0,1.876H90.417A.938.938,0,0,1,89.479,10.315Zm11.66,9.164a4.678,4.678,0,0,0,4.673-4.673V11.379A4.681,4.681,0,0,0,102.077,6.8V5.586a.938.938,0,0,0-1.876,0V6.8a4.681,4.681,0,0,0-3.735,4.578v3.427A4.678,4.678,0,0,0,101.139,19.479Zm-2.8-8.1A2.8,2.8,0,0,1,100.2,8.744v5.962a.938.938,0,0,0,1.876,0V8.744a2.8,2.8,0,0,1,1.86,2.636v3.427a2.8,2.8,0,0,1-5.594,0Z" transform="translate(127.672 1098.79)" fill="#fff"></path></g></g></svg>